<?xml version="1.0" encoding="utf-8"?><svg xml:space="preserve" viewBox="0 0 100 100" y="0" x="0" xmlns="http://www.w3.org/2000/svg" id="圖層_1" version="1.1" width="200px" height="200px" xmlns:xlink="http://www.w3.org/1999/xlink" style="width:100%;height:100%;background-size:initial;background-repeat-y:initial;background-repeat-x:initial;background-position-y:initial;background-position-x:initial;background-origin:initial;background-image:initial;background-color:rgb(255, 255, 255);background-clip:initial;background-attachment:initial;animation-play-state:paused" ><g class="ldl-scale" style="transform-origin:50% 50%;transform:rotate(0deg) scale(0.8, 0.8);animation-play-state:paused" ><circle fill="#cacaca" r="40" cy="50" cx="50" style="fill:rgb(202, 202, 202);animation-play-state:paused" ></circle>
<circle fill="#4b84c4" r="36.2" cy="50" cx="50" style="fill:rgb(75, 132, 196);animation-play-state:paused" ></circle>
<path fill="#c23d2b" d="M45.9 46c1.3-1.1 2.7-1.9 4-3 1.6-1.3 3.4-2.5 5-3.7 1.4-1 2.8-1.9 4.2-2.9 3.6-2.5 7.1-5.1 10.7-7.7 1-.7 1.9-1.4 2.9-2.1.5-.4.9-.7 1.4-1.1.1-.1.4-.3.4.1-.5.7-1 1.4-1.5 2.2-2.6 3.8-5.3 7.6-7.9 11.4-3.4 4.9-6.9 9.9-10.3 14.8-.1.2-.2.4-.5.5-1.4-1.4-2.8-2.9-4.2-4.3-1.4-1.5-2.7-2.9-4.2-4.2z" style="fill:rgb(194, 61, 43);animation-play-state:paused" ></path>
<path fill="#ebebeb" d="M45.9 46c1.4 1.3 2.8 2.7 4.1 4.1-.1.3-.3.5-.5.7-2.8 2.8-5.7 5.6-8.5 8.4-4.9 4.8-9.7 9.7-14.5 14.5-.2.2-.4.5-.7.5v-.3c.2 0 .2-.1.2-.3 0-.1.1-.1.1-.2 1.2-1.3 2.1-2.8 3.2-4.2 1.2-1.7 2.3-3.3 3.5-5l2.1-3c1.2-1.6 2.3-3.2 3.5-4.8 2.4-3.3 4.8-6.6 7.1-10 .1-.1.2-.3.4-.4z" style="fill:rgb(235, 235, 235);animation-play-state:paused" ></path>
<path fill="#cacaca" d="M25.8 74.1c.3 0 .5-.3.7-.5L41 59.1c2.8-2.8 5.7-5.6 8.5-8.4.2-.2.4-.4.5-.7 1.4 1.4 2.8 2.9 4.2 4.3-2.8 2-5.6 4-8.4 5.9-6.1 4.3-12.1 8.6-18.2 12.8-.5.3-.9.8-1.3 1.2-.3.3-.6.4-1 .3v-.1c.1 0 .2-.1.2-.3.2.1.3.1.3 0z" style="fill:rgb(202, 202, 202);animation-play-state:paused" ></path>
<metadata xmlns:d="https://loading.io/stock/" style="animation-play-state:paused" ><d:name style="animation-play-state:paused" >safari</d:name>
<d:tags style="animation-play-state:paused" >mac,compass,browser,safari,web application</d:tags>
<d:license style="animation-play-state:paused" >free</d:license>
<d:slug style="animation-play-state:paused" >l91csm</d:slug></metadata></g><!-- generated by https://loading.io/ --></svg>